<svg aria-roledescription="flowchart-v2" role="graphics-document document" viewBox="0 0 2058.84375 675" style="max-width: 2058.84px; background-color: white;" class="flowchart" xmlns:xlink="http://www.w3.org/1999/xlink" xmlns="http://www.w3.org/2000/svg" width="100%" id="my-svg"><style>#my-svg{font-family:"trebuchet ms",verdana,arial,sans-serif;font-size:16px;fill:#fff;}@keyframes edge-animation-frame{from{stroke-dashoffset:0;}}@keyframes dash{to{stroke-dashoffset:0;}}#my-svg .edge-animation-slow{stroke-dasharray:9,5!important;stroke-dashoffset:900;animation:dash 50s linear infinite;stroke-linecap:round;}#my-svg .edge-animation-fast{stroke-dasharray:9,5!important;stroke-dashoffset:900;animation:dash 20s linear infinite;stroke-linecap:round;}#my-svg .error-icon{fill:#f7fafc;}#my-svg .error-text{fill:#080503;stroke:#080503;}#my-svg .edge-thickness-normal{stroke-width:1px;}#my-svg .edge-thickness-thick{stroke-width:3.5px;}#my-svg .edge-pattern-solid{stroke-dasharray:0;}#my-svg .edge-thickness-invisible{stroke-width:0;fill:none;}#my-svg .edge-pattern-dashed{stroke-dasharray:3;}#my-svg .edge-pattern-dotted{stroke-dasharray:2;}#my-svg .marker{fill:#4a5568;stroke:#4a5568;}#my-svg .marker.cross{stroke:#4a5568;}#my-svg svg{font-family:"trebuchet ms",verdana,arial,sans-serif;font-size:16px;}#my-svg p{margin:0;}#my-svg .label{font-family:"trebuchet ms",verdana,arial,sans-serif;color:#fff;}#my-svg .cluster-label text{fill:#080503;}#my-svg .cluster-label span{color:#080503;}#my-svg .cluster-label span p{background-color:transparent;}#my-svg .label text,#my-svg span{fill:#fff;color:#fff;}#my-svg .node rect,#my-svg .node circle,#my-svg .node ellipse,#my-svg .node polygon,#my-svg .node path{fill:#1a365d;stroke:#2c5282;stroke-width:1px;}#my-svg .rough-node .label text,#my-svg .node .label text,#my-svg .image-shape .label,#my-svg .icon-shape .label{text-anchor:middle;}#my-svg .node .katex path{fill:#000;stroke:#000;stroke-width:1px;}#my-svg .rough-node .label,#my-svg .node .label,#my-svg .image-shape .label,#my-svg .icon-shape .label{text-align:center;}#my-svg .node.clickable{cursor:pointer;}#my-svg .root .anchor path{fill:#4a5568!important;stroke-width:0;stroke:#4a5568;}#my-svg .arrowheadPath{fill:#0b0b0b;}#my-svg .edgePath .path{stroke:#4a5568;stroke-width:2.0px;}#my-svg .flowchart-link{stroke:#4a5568;fill:none;}#my-svg .edgeLabel{background-color:#e2e8f0;text-align:center;}#my-svg .edgeLabel p{background-color:#e2e8f0;}#my-svg .edgeLabel rect{opacity:0.5;background-color:#e2e8f0;fill:#e2e8f0;}#my-svg .labelBkg{background-color:rgba(226, 232, 240, 0.5);}#my-svg .cluster rect{fill:#f7fafc;stroke:hsl(204, 5.4545454545%, 87.8431372549%);stroke-width:1px;}#my-svg .cluster text{fill:#080503;}#my-svg .cluster span{color:#080503;}#my-svg div.mermaidTooltip{position:absolute;text-align:center;max-width:200px;padding:2px;font-family:"trebuchet ms",verdana,arial,sans-serif;font-size:12px;background:#f7fafc;border:1px solid hsl(204, 5.4545454545%, 87.8431372549%);border-radius:2px;pointer-events:none;z-index:100;}#my-svg .flowchartTitleText{text-anchor:middle;font-size:18px;fill:#fff;}#my-svg rect.text{fill:none;stroke-width:0;}#my-svg .icon-shape,#my-svg .image-shape{background-color:#e2e8f0;text-align:center;}#my-svg .icon-shape p,#my-svg .image-shape p{background-color:#e2e8f0;padding:2px;}#my-svg .icon-shape rect,#my-svg .image-shape rect{opacity:0.5;background-color:#e2e8f0;fill:#e2e8f0;}#my-svg .label-icon{display:inline-block;height:1em;overflow:visible;vertical-align:-0.125em;}#my-svg .node .label-icon path{fill:currentColor;stroke:revert;stroke-width:revert;}#my-svg :root{--mermaid-font-family:"trebuchet ms",verdana,arial,sans-serif;}#my-svg .actor&gt;*{fill:#e2e8f0!important;stroke:#4a5568!important;color:#1a202c!important;}#my-svg .actor span{fill:#e2e8f0!important;stroke:#4a5568!important;color:#1a202c!important;}#my-svg .actor tspan{fill:#1a202c!important;}#my-svg .system&gt;*{fill:#1a365d!important;stroke:#2c5282!important;color:#fff!important;}#my-svg .system span{fill:#1a365d!important;stroke:#2c5282!important;color:#fff!important;}#my-svg .system tspan{fill:#fff!important;}#my-svg .external&gt;*{fill:#2c5282!important;stroke:#1a365d!important;color:#fff!important;}#my-svg .external span{fill:#2c5282!important;stroke:#1a365d!important;color:#fff!important;}#my-svg .external tspan{fill:#fff!important;}</style><g><marker orient="auto" markerHeight="8" markerWidth="8" markerUnits="userSpaceOnUse" refY="5" refX="5" viewBox="0 0 10 10" class="marker flowchart-v2" id="my-svg_flowchart-v2-pointEnd"><path style="stroke-width: 1; stroke-dasharray: 1, 0;" class="arrowMarkerPath" d="M 0 0 L 10 5 L 0 10 z"/></marker><marker orient="auto" markerHeight="8" markerWidth="8" markerUnits="userSpaceOnUse" refY="5" refX="4.5" viewBox="0 0 10 10" class="marker flowchart-v2" id="my-svg_flowchart-v2-pointStart"><path style="stroke-width: 1; stroke-dasharray: 1, 0;" class="arrowMarkerPath" d="M 0 5 L 10 10 L 10 0 z"/></marker><marker orient="auto" markerHeight="11" markerWidth="11" markerUnits="userSpaceOnUse" refY="5" refX="11" viewBox="0 0 10 10" class="marker flowchart-v2" id="my-svg_flowchart-v2-circleEnd"><circle style="stroke-width: 1; stroke-dasharray: 1, 0;" class="arrowMarkerPath" r="5" cy="5" cx="5"/></marker><marker orient="auto" markerHeight="11" markerWidth="11" markerUnits="userSpaceOnUse" refY="5" refX="-1" viewBox="0 0 10 10" class="marker flowchart-v2" id="my-svg_flowchart-v2-circleStart"><circle style="stroke-width: 1; stroke-dasharray: 1, 0;" class="arrowMarkerPath" r="5" cy="5" cx="5"/></marker><marker orient="auto" markerHeight="11" markerWidth="11" markerUnits="userSpaceOnUse" refY="5.2" refX="12" viewBox="0 0 11 11" class="marker cross flowchart-v2" id="my-svg_flowchart-v2-crossEnd"><path style="stroke-width: 2; stroke-dasharray: 1, 0;" class="arrowMarkerPath" d="M 1,1 l 9,9 M 10,1 l -9,9"/></marker><marker orient="auto" markerHeight="11" markerWidth="11" markerUnits="userSpaceOnUse" refY="5.2" refX="-1" viewBox="0 0 11 11" class="marker cross flowchart-v2" id="my-svg_flowchart-v2-crossStart"><path style="stroke-width: 2; stroke-dasharray: 1, 0;" class="arrowMarkerPath" d="M 1,1 l 9,9 M 10,1 l -9,9"/></marker><g class="root"><g class="clusters"><g data-look="classic" id="external" class="cluster"><rect height="659" width="1277.203125" y="8" x="271.921875" style=""/><g transform="translate(849.15625, 8)" class="cluster-label"><foreignObject height="24" width="122.734375"><div style="display: table-cell; white-space: nowrap; line-height: 1.5; max-width: 200px; text-align: center;" xmlns="http://www.w3.org/1999/xhtml"><span class="nodeLabel"><p>External Services</p></span></div></foreignObject></g></g><g data-look="classic" id="website" class="cluster"><rect height="128" width="243.921875" y="210" x="8" style=""/><g transform="translate(29.9609375, 210)" class="cluster-label"><foreignObject height="48" width="200"><div style="display: table; white-space: break-spaces; line-height: 1.5; max-width: 200px; text-align: center; width: 200px;" xmlns="http://www.w3.org/1999/xhtml"><span class="nodeLabel"><p>Example Studio Website</p></span></div></foreignObject></g></g><g data-look="classic" id="actors" class="cluster"><rect height="128" width="481.71875" y="8" x="1569.125" style=""/><g transform="translate(1809.984375, 8)" class="cluster-label"><foreignObject height="0" width="0"><div style="display: table-cell; white-space: nowrap; line-height: 1.5; max-width: 200px; text-align: center;" xmlns="http://www.w3.org/1999/xhtml"><span class="nodeLabel"></span></div></foreignObject></g></g></g><g class="edgePaths"><path marker-end="url(#my-svg_flowchart-v2-pointEnd)" style="" class="edge-thickness-normal edge-pattern-solid edge-thickness-normal edge-pattern-solid flowchart-link" id="L_owner_sanity_0" d="M1878.383,104L1872.263,109.333C1866.142,114.667,1853.901,125.333,1705.706,136.833C1557.512,148.333,1273.363,160.667,1131.289,173C989.215,185.333,989.215,197.667,989.215,214.5C989.215,231.333,989.215,252.667,989.215,274C989.215,295.333,989.215,316.667,989.215,333.5C989.215,350.333,989.215,362.667,967.263,375.732C945.311,388.797,901.407,402.593,879.455,409.492L857.504,416.39"/><path marker-end="url(#my-svg_flowchart-v2-pointEnd)" style="" class="edge-thickness-normal edge-pattern-solid edge-thickness-normal edge-pattern-solid flowchart-link" id="L_owner_cloudflare_0" d="M1932.651,104L1935.862,109.333C1939.073,114.667,1945.496,125.333,1814.077,136.833C1682.659,148.333,1413.4,160.667,1278.77,173C1144.141,185.333,1144.141,197.667,1144.141,214.5C1144.141,231.333,1144.141,252.667,1144.141,274C1144.141,295.333,1144.141,316.667,1144.141,333.5C1144.141,350.333,1144.141,362.667,1140.694,374.432C1137.248,386.198,1130.355,397.396,1126.909,402.995L1123.462,408.594"/><path marker-end="url(#my-svg_flowchart-v2-pointEnd)" style="" class="edge-thickness-normal edge-pattern-solid edge-thickness-normal edge-pattern-solid flowchart-link" id="L_owner_formspree_0" d="M1861.601,104L1852.595,109.333C1843.588,114.667,1825.575,125.333,1658.213,136.833C1490.852,148.333,1174.141,160.667,1015.785,173C857.43,185.333,857.43,197.667,853.286,207.555C849.143,217.442,840.856,224.885,836.713,228.606L832.569,232.327"/><path marker-end="url(#my-svg_flowchart-v2-pointEnd)" style="" class="edge-thickness-normal edge-pattern-solid edge-thickness-normal edge-pattern-solid flowchart-link" id="L_owner_youtube_0" d="M1952.338,104L1958.935,109.333C1965.532,114.667,1978.725,125.333,1895.929,136.833C1813.133,148.333,1634.348,160.667,1544.955,173C1455.563,185.333,1455.563,197.667,1455.563,214.5C1455.563,231.333,1455.563,252.667,1455.563,274C1455.563,295.333,1455.563,316.667,1455.563,333.5C1455.563,350.333,1455.563,362.667,1445.654,374.662C1435.745,386.657,1415.928,398.315,1406.019,404.143L1396.111,409.972"/><path marker-end="url(#my-svg_flowchart-v2-pointEnd)" style="" class="edge-thickness-normal edge-pattern-solid edge-thickness-normal edge-pattern-solid flowchart-link" id="L_visitor_site_0" d="M1664.666,104L1661.493,109.333C1658.32,114.667,1651.975,125.333,1396.19,136.833C1140.406,148.333,635.184,160.667,382.572,173C129.961,185.333,129.961,197.667,129.961,207.333C129.961,217,129.961,224,129.961,227.5L129.961,231"/><path marker-end="url(#my-svg_flowchart-v2-pointEnd)" style="" class="edge-thickness-normal edge-pattern-solid edge-thickness-normal edge-pattern-solid flowchart-link" id="L_visitor_formspree_0" d="M1730.394,101.493L1739.922,107.244C1749.45,112.995,1768.506,124.498,1599.258,136.416C1430.01,148.333,1072.458,160.667,893.682,173C714.906,185.333,714.906,197.667,719.05,207.555C723.193,217.442,731.48,224.885,735.623,228.606L739.767,232.327"/><path marker-end="url(#my-svg_flowchart-v2-pointEnd)" style="" class="edge-thickness-normal edge-pattern-solid edge-thickness-normal edge-pattern-solid flowchart-link" id="L_visitor_worker_0" d="M1681.448,104L1681.161,109.333C1680.875,114.667,1680.301,125.333,1487.49,136.833C1294.68,148.333,909.633,160.667,717.109,173C524.586,185.333,524.586,197.667,524.586,207.333C524.586,217,524.586,224,524.586,227.5L524.586,231"/><path marker-end="url(#my-svg_flowchart-v2-pointEnd)" style="" class="edge-thickness-normal edge-pattern-solid edge-thickness-normal edge-pattern-solid flowchart-link" id="L_visitor_youtube_0" d="M1738.699,84.882L1777.569,93.402C1816.439,101.922,1894.178,118.961,1825.689,133.647C1757.201,148.333,1542.483,160.667,1435.124,173C1327.766,185.333,1327.766,197.667,1327.766,214.5C1327.766,231.333,1327.766,252.667,1327.766,274C1327.766,295.333,1327.766,316.667,1327.766,333.5C1327.766,350.333,1327.766,362.667,1327.664,374.333C1327.563,386,1327.36,397,1327.258,402.501L1327.157,408.001"/><path marker-end="url(#my-svg_flowchart-v2-pointEnd)" style="" class="edge-thickness-normal edge-pattern-solid edge-thickness-normal edge-pattern-solid flowchart-link" id="L_site_sanity_0" d="M98.895,313L95.576,317.167C92.257,321.333,85.619,329.667,193.697,340C301.776,350.333,524.572,362.667,635.969,374.333C747.367,386,747.367,397,747.367,402.5L747.367,408"/><path marker-end="url(#my-svg_flowchart-v2-pointEnd)" style="" class="edge-thickness-normal edge-pattern-solid edge-thickness-normal edge-pattern-solid flowchart-link" id="L_site_cloudflare_0" d="M111.082,313L109.065,317.167C107.048,321.333,103.014,329.667,258.676,340C414.337,350.333,729.694,362.667,891.239,374.451C1052.784,386.235,1060.516,397.47,1064.383,403.088L1068.249,408.705"/><path marker-end="url(#my-svg_flowchart-v2-pointEnd)" style="" class="edge-thickness-normal edge-pattern-solid edge-thickness-normal edge-pattern-solid flowchart-link" id="L_site_youtube_0" d="M161.027,313L164.346,317.167C167.665,321.333,174.303,329.667,353.458,340C532.612,350.333,884.283,362.667,1066.943,374.571C1249.604,386.475,1263.256,397.951,1270.081,403.688L1276.907,409.426"/><path marker-end="url(#my-svg_flowchart-v2-pointEnd)" style="" class="edge-thickness-normal edge-pattern-solid edge-thickness-normal edge-pattern-solid flowchart-link" id="L_worker_sanity_0" d="M524.586,313L524.586,317.167C524.586,321.333,524.586,329.667,524.586,340C524.586,350.333,524.586,362.667,543.365,375.24C562.144,387.813,599.703,400.625,618.482,407.032L637.261,413.438"/><path marker-end="url(#my-svg_flowchart-v2-pointEnd)" style="" class="edge-thickness-normal edge-pattern-solid edge-thickness-normal edge-pattern-solid flowchart-link" id="L_sanity_googlecloud_0" d="M747.367,490L747.367,496.167C747.367,502.333,747.367,514.667,747.367,526.333C747.367,538,747.367,549,747.367,554.5L747.367,560"/><path marker-end="url(#my-svg_flowchart-v2-pointEnd)" style="" class="edge-thickness-normal edge-pattern-solid edge-thickness-normal edge-pattern-solid flowchart-link" id="L_github_site_0" d="M400.766,111L400.766,115.167C400.766,119.333,400.766,127.667,400.766,138C400.766,148.333,400.766,160.667,400.766,173C400.766,185.333,400.766,197.667,370.774,210.921C340.782,224.176,280.798,238.352,250.806,245.44L220.815,252.528"/></g><g class="edgeLabels"><g transform="translate(989.21484375, 274)" class="edgeLabel"><g transform="translate(-60.1875, -12)" class="label"><foreignObject height="24" width="120.375"><div style="display: table-cell; white-space: nowrap; line-height: 1.5; max-width: 200px; text-align: center;" class="labelBkg" xmlns="http://www.w3.org/1999/xhtml"><span class="edgeLabel"><p>Manages content</p></span></div></foreignObject></g></g><g transform="translate(1144.140625, 274)" class="edgeLabel"><g transform="translate(-54.1875, -12)" class="label"><foreignObject height="24" width="108.375"><div style="display: table-cell; white-space: nowrap; line-height: 1.5; max-width: 200px; text-align: center;" class="labelBkg" xmlns="http://www.w3.org/1999/xhtml"><span class="edgeLabel"><p>Triggers deploy</p></span></div></foreignObject></g></g><g transform="translate(857.4296875, 173)" class="edgeLabel"><g transform="translate(-66.53125, -12)" class="label"><foreignObject height="24" width="133.0625"><div style="display: table-cell; white-space: nowrap; line-height: 1.5; max-width: 200px; text-align: center;" class="labelBkg" xmlns="http://www.w3.org/1999/xhtml"><span class="edgeLabel"><p>Receives messages</p></span></div></foreignObject></g></g><g transform="translate(1455.5625, 274)" class="edgeLabel"><g transform="translate(-53.15625, -12)" class="label"><foreignObject height="24" width="106.3125"><div style="display: table-cell; white-space: nowrap; line-height: 1.5; max-width: 200px; text-align: center;" class="labelBkg" xmlns="http://www.w3.org/1999/xhtml"><span class="edgeLabel"><p>Uploads videos</p></span></div></foreignObject></g></g><g transform="translate(129.9609375, 173)" class="edgeLabel"><g transform="translate(-35.859375, -12)" class="label"><foreignObject height="24" width="71.71875"><div style="display: table-cell; white-space: nowrap; line-height: 1.5; max-width: 200px; text-align: center;" class="labelBkg" xmlns="http://www.w3.org/1999/xhtml"><span class="edgeLabel"><p>Views site</p></span></div></foreignObject></g></g><g transform="translate(714.90625, 173)" class="edgeLabel"><g transform="translate(-55.9921875, -12)" class="label"><foreignObject height="24" width="111.984375"><div style="display: table-cell; white-space: nowrap; line-height: 1.5; max-width: 200px; text-align: center;" class="labelBkg" xmlns="http://www.w3.org/1999/xhtml"><span class="edgeLabel"><p>Sends messages</p></span></div></foreignObject></g></g><g transform="translate(524.5859375, 173)" class="edgeLabel"><g transform="translate(-67.1015625, -12)" class="label"><foreignObject height="24" width="134.203125"><div style="display: table-cell; white-space: nowrap; line-height: 1.5; max-width: 200px; text-align: center;" class="labelBkg" xmlns="http://www.w3.org/1999/xhtml"><span class="edgeLabel"><p>Submits comments</p></span></div></foreignObject></g></g><g transform="translate(1327.765625, 274)" class="edgeLabel"><g transform="translate(-54.640625, -12)" class="label"><foreignObject height="24" width="109.28125"><div style="display: table-cell; white-space: nowrap; line-height: 1.5; max-width: 200px; text-align: center;" class="labelBkg" xmlns="http://www.w3.org/1999/xhtml"><span class="edgeLabel"><p>Watches videos</p></span></div></foreignObject></g></g><g transform="translate(747.3671875, 375)" class="edgeLabel"><g transform="translate(-57.78125, -12)" class="label"><foreignObject height="24" width="115.5625"><div style="display: table-cell; white-space: nowrap; line-height: 1.5; max-width: 200px; text-align: center;" class="labelBkg" xmlns="http://www.w3.org/1999/xhtml"><span class="edgeLabel"><p>Fetches content</p></span></div></foreignObject></g></g><g transform="translate(580.57996, 356.83494)" class="edgeLabel"><g transform="translate(-35.8359375, -12)" class="label"><foreignObject height="24" width="71.671875"><div style="display: table-cell; white-space: nowrap; line-height: 1.5; max-width: 200px; text-align: center;" class="labelBkg" xmlns="http://www.w3.org/1999/xhtml"><span class="edgeLabel"><p>Hosted on</p></span></div></foreignObject></g></g><g transform="translate(1235.953125, 375)" class="edgeLabel"><g transform="translate(-71.8125, -12)" class="label"><foreignObject height="24" width="143.625"><div style="display: table-cell; white-space: nowrap; line-height: 1.5; max-width: 200px; text-align: center;" class="labelBkg" xmlns="http://www.w3.org/1999/xhtml"><span class="edgeLabel"><p>Embeds videos from</p></span></div></foreignObject></g></g><g transform="translate(524.5859375, 375)" class="edgeLabel"><g transform="translate(-68.5390625, -12)" class="label"><foreignObject height="24" width="137.078125"><div style="display: table-cell; white-space: nowrap; line-height: 1.5; max-width: 200px; text-align: center;" class="labelBkg" xmlns="http://www.w3.org/1999/xhtml"><span class="edgeLabel"><p>Saves comments to</p></span></div></foreignObject></g></g><g transform="translate(747.3671875, 527)" class="edgeLabel"><g transform="translate(-77.3046875, -12)" class="label"><foreignObject height="24" width="154.609375"><div style="display: table-cell; white-space: nowrap; line-height: 1.5; max-width: 200px; text-align: center;" class="labelBkg" xmlns="http://www.w3.org/1999/xhtml"><span class="edgeLabel"><p>Fetches metadata via</p></span></div></foreignObject></g></g><g transform="translate(400.765625, 173)" class="edgeLabel"><g transform="translate(-36.71875, -12)" class="label"><foreignObject height="24" width="73.4375"><div style="display: table-cell; white-space: nowrap; line-height: 1.5; max-width: 200px; text-align: center;" class="labelBkg" xmlns="http://www.w3.org/1999/xhtml"><span class="edgeLabel"><p>Source for</p></span></div></foreignObject></g></g></g><g class="nodes"><g transform="translate(1912.9921875, 72)" id="flowchart-owner-0" class="node default actor"><polygon style="fill:#e2e8f0 !important;stroke:#4a5568 !important" transform="translate(-71.3515625,31.5)" class="label-container" points="-31.5,0 142.703125,0 174.203125,-63 0,-63"/><g transform="translate(-63.8515625, -24)" style="color:#1a202c !important" class="label"><rect/><foreignObject height="48" width="127.703125"><div xmlns="http://www.w3.org/1999/xhtml" style="color: rgb(26, 32, 44) !important; display: table-cell; white-space: nowrap; line-height: 1.5; max-width: 200px; text-align: center;"><span class="nodeLabel" style="color:#1a202c !important"><p>Site Owner<br />(Content Creator)</p></span></div></foreignObject></g></g><g transform="translate(1682.1328125, 72)" id="flowchart-visitor-1" class="node default actor"><polygon style="fill:#e2e8f0 !important;stroke:#4a5568 !important" transform="translate(-46.5078125,31.5)" class="label-container" points="-31.5,0 93.015625,0 124.515625,-63 0,-63"/><g transform="translate(-39.0078125, -24)" style="color:#1a202c !important" class="label"><rect/><foreignObject height="48" width="78.015625"><div xmlns="http://www.w3.org/1999/xhtml" style="color: rgb(26, 32, 44) !important; display: table-cell; white-space: nowrap; line-height: 1.5; max-width: 200px; text-align: center;"><span class="nodeLabel" style="color:#1a202c !important"><p>Site Visitor<br />(Learner)</p></span></div></foreignObject></g></g><g transform="translate(129.9609375, 274)" id="flowchart-site-2" class="node default system"><rect height="78" width="173.921875" y="-39" x="-86.9609375" style="fill:#1a365d !important;stroke:#2c5282 !important" class="basic label-container"/><g transform="translate(-56.9609375, -24)" style="color:#fff !important" class="label"><rect/><foreignObject height="48" width="113.921875"><div xmlns="http://www.w3.org/1999/xhtml" style="color: rgb(255, 255, 255) !important; display: table-cell; white-space: nowrap; line-height: 1.5; max-width: 200px; text-align: center;"><span class="nodeLabel" style="color:#fff !important"><p>Static Website<br />Astro + Tailwind</p></span></div></foreignObject></g></g><g transform="translate(747.3671875, 451)" id="flowchart-sanity-3" class="node default external"><rect height="78" width="212.640625" y="-39" x="-106.3203125" style="fill:#2c5282 !important;stroke:#1a365d !important" class="basic label-container"/><g transform="translate(-76.3203125, -24)" style="color:#fff !important" class="label"><rect/><foreignObject height="48" width="152.640625"><div xmlns="http://www.w3.org/1999/xhtml" style="color: rgb(255, 255, 255) !important; display: table-cell; white-space: nowrap; line-height: 1.5; max-width: 200px; text-align: center;"><span class="nodeLabel" style="color:#fff !important"><p>Sanity CMS<br />Content Management</p></span></div></foreignObject></g></g><g transform="translate(1097.359375, 451)" id="flowchart-cloudflare-4" class="node default external"><rect height="78" width="179.15625" y="-39" x="-89.578125" style="fill:#2c5282 !important;stroke:#1a365d !important" class="basic label-container"/><g transform="translate(-59.578125, -24)" style="color:#fff !important" class="label"><rect/><foreignObject height="48" width="119.15625"><div xmlns="http://www.w3.org/1999/xhtml" style="color: rgb(255, 255, 255) !important; display: table-cell; white-space: nowrap; line-height: 1.5; max-width: 200px; text-align: center;"><span class="nodeLabel" style="color:#fff !important"><p>Cloudflare Pages<br />Hosting + CDN</p></span></div></foreignObject></g></g><g transform="translate(524.5859375, 274)" id="flowchart-worker-5" class="node default external"><rect height="78" width="211.390625" y="-39" x="-105.6953125" style="fill:#2c5282 !important;stroke:#1a365d !important" class="basic label-container"/><g transform="translate(-75.6953125, -24)" style="color:#fff !important" class="label"><rect/><foreignObject height="48" width="151.390625"><div xmlns="http://www.w3.org/1999/xhtml" style="color: rgb(255, 255, 255) !important; display: table-cell; white-space: nowrap; line-height: 1.5; max-width: 200px; text-align: center;"><span class="nodeLabel" style="color:#fff !important"><p>Cloudflare Worker<br />Comment Submission</p></span></div></foreignObject></g></g><g transform="translate(786.16796875, 274)" id="flowchart-formspree-6" class="node default external"><rect height="78" width="163.703125" y="-39" x="-81.8515625" style="fill:#2c5282 !important;stroke:#1a365d !important" class="basic label-container"/><g transform="translate(-51.8515625, -24)" style="color:#fff !important" class="label"><rect/><foreignObject height="48" width="103.703125"><div xmlns="http://www.w3.org/1999/xhtml" style="color: rgb(255, 255, 255) !important; display: table-cell; white-space: nowrap; line-height: 1.5; max-width: 200px; text-align: center;"><span class="nodeLabel" style="color:#fff !important"><p>Formspree<br />Contact Forms</p></span></div></foreignObject></g></g><g transform="translate(1326.36328125, 451)" id="flowchart-youtube-7" class="node default external"><rect height="78" width="157.9375" y="-39" x="-78.96875" style="fill:#2c5282 !important;stroke:#1a365d !important" class="basic label-container"/><g transform="translate(-48.96875, -24)" style="color:#fff !important" class="label"><rect/><foreignObject height="48" width="97.9375"><div xmlns="http://www.w3.org/1999/xhtml" style="color: rgb(255, 255, 255) !important; display: table-cell; white-space: nowrap; line-height: 1.5; max-width: 200px; text-align: center;"><span class="nodeLabel" style="color:#fff !important"><p>YouTube<br />Video Hosting</p></span></div></foreignObject></g></g><g transform="translate(747.3671875, 603)" id="flowchart-googlecloud-8" class="node default external"><rect height="78" width="182.765625" y="-39" x="-91.3828125" style="fill:#2c5282 !important;stroke:#1a365d !important" class="basic label-container"/><g transform="translate(-61.3828125, -24)" style="color:#fff !important" class="label"><rect/><foreignObject height="48" width="122.765625"><div xmlns="http://www.w3.org/1999/xhtml" style="color: rgb(255, 255, 255) !important; display: table-cell; white-space: nowrap; line-height: 1.5; max-width: 200px; text-align: center;"><span class="nodeLabel" style="color:#fff !important"><p>Google Cloud<br />YouTube Data API</p></span></div></foreignObject></g></g><g transform="translate(400.765625, 72)" id="flowchart-github-9" class="node default external"><rect height="78" width="187.6875" y="-39" x="-93.84375" style="fill:#2c5282 !important;stroke:#1a365d !important" class="basic label-container"/><g transform="translate(-63.84375, -24)" style="color:#fff !important" class="label"><rect/><foreignObject height="48" width="127.6875"><div xmlns="http://www.w3.org/1999/xhtml" style="color: rgb(255, 255, 255) !important; display: table-cell; white-space: nowrap; line-height: 1.5; max-width: 200px; text-align: center;"><span class="nodeLabel" style="color:#fff !important"><p>GitHub<br />Source Repository</p></span></div></foreignObject></g></g></g></g></g></svg>